%TF.GenerationSoftware,KiCad,Pcbnew,10.0.0*%
%TF.CreationDate,2026-04-22T18:57:48-04:00*%
%TF.ProjectId,morph00,6d6f7270-6830-4302-9e6b-696361645f70,rev?*%
%TF.SameCoordinates,Original*%
%TF.FileFunction,Legend,Top*%
%TF.FilePolarity,Positive*%
%FSLAX46Y46*%
G04 Gerber Fmt 4.6, Leading zero omitted, Abs format (unit mm)*
G04 Created by KiCad (PCBNEW 10.0.0) date 2026-04-22 18:57:48*
%MOMM*%
%LPD*%
G01*
G04 APERTURE LIST*
%ADD10C,0.150000*%
%ADD11C,0.100000*%
%ADD12C,0.120000*%
G04 APERTURE END LIST*
D10*
X72477333Y-97652819D02*
X72144000Y-97176628D01*
X71905905Y-97652819D02*
X71905905Y-96652819D01*
X71905905Y-96652819D02*
X72286857Y-96652819D01*
X72286857Y-96652819D02*
X72382095Y-96700438D01*
X72382095Y-96700438D02*
X72429714Y-96748057D01*
X72429714Y-96748057D02*
X72477333Y-96843295D01*
X72477333Y-96843295D02*
X72477333Y-96986152D01*
X72477333Y-96986152D02*
X72429714Y-97081390D01*
X72429714Y-97081390D02*
X72382095Y-97129009D01*
X72382095Y-97129009D02*
X72286857Y-97176628D01*
X72286857Y-97176628D02*
X71905905Y-97176628D01*
X72858286Y-96748057D02*
X72905905Y-96700438D01*
X72905905Y-96700438D02*
X73001143Y-96652819D01*
X73001143Y-96652819D02*
X73239238Y-96652819D01*
X73239238Y-96652819D02*
X73334476Y-96700438D01*
X73334476Y-96700438D02*
X73382095Y-96748057D01*
X73382095Y-96748057D02*
X73429714Y-96843295D01*
X73429714Y-96843295D02*
X73429714Y-96938533D01*
X73429714Y-96938533D02*
X73382095Y-97081390D01*
X73382095Y-97081390D02*
X72810667Y-97652819D01*
X72810667Y-97652819D02*
X73429714Y-97652819D01*
X71735333Y-78631580D02*
X71687714Y-78679200D01*
X71687714Y-78679200D02*
X71544857Y-78726819D01*
X71544857Y-78726819D02*
X71449619Y-78726819D01*
X71449619Y-78726819D02*
X71306762Y-78679200D01*
X71306762Y-78679200D02*
X71211524Y-78583961D01*
X71211524Y-78583961D02*
X71163905Y-78488723D01*
X71163905Y-78488723D02*
X71116286Y-78298247D01*
X71116286Y-78298247D02*
X71116286Y-78155390D01*
X71116286Y-78155390D02*
X71163905Y-77964914D01*
X71163905Y-77964914D02*
X71211524Y-77869676D01*
X71211524Y-77869676D02*
X71306762Y-77774438D01*
X71306762Y-77774438D02*
X71449619Y-77726819D01*
X71449619Y-77726819D02*
X71544857Y-77726819D01*
X71544857Y-77726819D02*
X71687714Y-77774438D01*
X71687714Y-77774438D02*
X71735333Y-77822057D01*
X72687714Y-78726819D02*
X72116286Y-78726819D01*
X72402000Y-78726819D02*
X72402000Y-77726819D01*
X72402000Y-77726819D02*
X72306762Y-77869676D01*
X72306762Y-77869676D02*
X72211524Y-77964914D01*
X72211524Y-77964914D02*
X72116286Y-78012533D01*
X114751667Y-84078200D02*
X114894524Y-84125819D01*
X114894524Y-84125819D02*
X115132619Y-84125819D01*
X115132619Y-84125819D02*
X115227857Y-84078200D01*
X115227857Y-84078200D02*
X115275476Y-84030580D01*
X115275476Y-84030580D02*
X115323095Y-83935342D01*
X115323095Y-83935342D02*
X115323095Y-83840104D01*
X115323095Y-83840104D02*
X115275476Y-83744866D01*
X115275476Y-83744866D02*
X115227857Y-83697247D01*
X115227857Y-83697247D02*
X115132619Y-83649628D01*
X115132619Y-83649628D02*
X114942143Y-83602009D01*
X114942143Y-83602009D02*
X114846905Y-83554390D01*
X114846905Y-83554390D02*
X114799286Y-83506771D01*
X114799286Y-83506771D02*
X114751667Y-83411533D01*
X114751667Y-83411533D02*
X114751667Y-83316295D01*
X114751667Y-83316295D02*
X114799286Y-83221057D01*
X114799286Y-83221057D02*
X114846905Y-83173438D01*
X114846905Y-83173438D02*
X114942143Y-83125819D01*
X114942143Y-83125819D02*
X115180238Y-83125819D01*
X115180238Y-83125819D02*
X115323095Y-83173438D01*
X115656429Y-83125819D02*
X115894524Y-84125819D01*
X115894524Y-84125819D02*
X116085000Y-83411533D01*
X116085000Y-83411533D02*
X116275476Y-84125819D01*
X116275476Y-84125819D02*
X116513572Y-83125819D01*
X117418333Y-84125819D02*
X116846905Y-84125819D01*
X117132619Y-84125819D02*
X117132619Y-83125819D01*
X117132619Y-83125819D02*
X117037381Y-83268676D01*
X117037381Y-83268676D02*
X116942143Y-83363914D01*
X116942143Y-83363914D02*
X116846905Y-83411533D01*
X72477333Y-95224819D02*
X72144000Y-94748628D01*
X71905905Y-95224819D02*
X71905905Y-94224819D01*
X71905905Y-94224819D02*
X72286857Y-94224819D01*
X72286857Y-94224819D02*
X72382095Y-94272438D01*
X72382095Y-94272438D02*
X72429714Y-94320057D01*
X72429714Y-94320057D02*
X72477333Y-94415295D01*
X72477333Y-94415295D02*
X72477333Y-94558152D01*
X72477333Y-94558152D02*
X72429714Y-94653390D01*
X72429714Y-94653390D02*
X72382095Y-94701009D01*
X72382095Y-94701009D02*
X72286857Y-94748628D01*
X72286857Y-94748628D02*
X71905905Y-94748628D01*
X73429714Y-95224819D02*
X72858286Y-95224819D01*
X73144000Y-95224819D02*
X73144000Y-94224819D01*
X73144000Y-94224819D02*
X73048762Y-94367676D01*
X73048762Y-94367676D02*
X72953524Y-94462914D01*
X72953524Y-94462914D02*
X72858286Y-94510533D01*
X70445333Y-107587580D02*
X70397714Y-107635200D01*
X70397714Y-107635200D02*
X70254857Y-107682819D01*
X70254857Y-107682819D02*
X70159619Y-107682819D01*
X70159619Y-107682819D02*
X70016762Y-107635200D01*
X70016762Y-107635200D02*
X69921524Y-107539961D01*
X69921524Y-107539961D02*
X69873905Y-107444723D01*
X69873905Y-107444723D02*
X69826286Y-107254247D01*
X69826286Y-107254247D02*
X69826286Y-107111390D01*
X69826286Y-107111390D02*
X69873905Y-106920914D01*
X69873905Y-106920914D02*
X69921524Y-106825676D01*
X69921524Y-106825676D02*
X70016762Y-106730438D01*
X70016762Y-106730438D02*
X70159619Y-106682819D01*
X70159619Y-106682819D02*
X70254857Y-106682819D01*
X70254857Y-106682819D02*
X70397714Y-106730438D01*
X70397714Y-106730438D02*
X70445333Y-106778057D01*
X70826286Y-106778057D02*
X70873905Y-106730438D01*
X70873905Y-106730438D02*
X70969143Y-106682819D01*
X70969143Y-106682819D02*
X71207238Y-106682819D01*
X71207238Y-106682819D02*
X71302476Y-106730438D01*
X71302476Y-106730438D02*
X71350095Y-106778057D01*
X71350095Y-106778057D02*
X71397714Y-106873295D01*
X71397714Y-106873295D02*
X71397714Y-106968533D01*
X71397714Y-106968533D02*
X71350095Y-107111390D01*
X71350095Y-107111390D02*
X70778667Y-107682819D01*
X70778667Y-107682819D02*
X71397714Y-107682819D01*
X191751667Y-84078200D02*
X191894524Y-84125819D01*
X191894524Y-84125819D02*
X192132619Y-84125819D01*
X192132619Y-84125819D02*
X192227857Y-84078200D01*
X192227857Y-84078200D02*
X192275476Y-84030580D01*
X192275476Y-84030580D02*
X192323095Y-83935342D01*
X192323095Y-83935342D02*
X192323095Y-83840104D01*
X192323095Y-83840104D02*
X192275476Y-83744866D01*
X192275476Y-83744866D02*
X192227857Y-83697247D01*
X192227857Y-83697247D02*
X192132619Y-83649628D01*
X192132619Y-83649628D02*
X191942143Y-83602009D01*
X191942143Y-83602009D02*
X191846905Y-83554390D01*
X191846905Y-83554390D02*
X191799286Y-83506771D01*
X191799286Y-83506771D02*
X191751667Y-83411533D01*
X191751667Y-83411533D02*
X191751667Y-83316295D01*
X191751667Y-83316295D02*
X191799286Y-83221057D01*
X191799286Y-83221057D02*
X191846905Y-83173438D01*
X191846905Y-83173438D02*
X191942143Y-83125819D01*
X191942143Y-83125819D02*
X192180238Y-83125819D01*
X192180238Y-83125819D02*
X192323095Y-83173438D01*
X192656429Y-83125819D02*
X192894524Y-84125819D01*
X192894524Y-84125819D02*
X193085000Y-83411533D01*
X193085000Y-83411533D02*
X193275476Y-84125819D01*
X193275476Y-84125819D02*
X193513572Y-83125819D01*
X194370714Y-83125819D02*
X193894524Y-83125819D01*
X193894524Y-83125819D02*
X193846905Y-83602009D01*
X193846905Y-83602009D02*
X193894524Y-83554390D01*
X193894524Y-83554390D02*
X193989762Y-83506771D01*
X193989762Y-83506771D02*
X194227857Y-83506771D01*
X194227857Y-83506771D02*
X194323095Y-83554390D01*
X194323095Y-83554390D02*
X194370714Y-83602009D01*
X194370714Y-83602009D02*
X194418333Y-83697247D01*
X194418333Y-83697247D02*
X194418333Y-83935342D01*
X194418333Y-83935342D02*
X194370714Y-84030580D01*
X194370714Y-84030580D02*
X194323095Y-84078200D01*
X194323095Y-84078200D02*
X194227857Y-84125819D01*
X194227857Y-84125819D02*
X193989762Y-84125819D01*
X193989762Y-84125819D02*
X193894524Y-84078200D01*
X193894524Y-84078200D02*
X193846905Y-84030580D01*
X257306666Y-98814819D02*
X256973333Y-98338628D01*
X256735238Y-98814819D02*
X256735238Y-97814819D01*
X256735238Y-97814819D02*
X257116190Y-97814819D01*
X257116190Y-97814819D02*
X257211428Y-97862438D01*
X257211428Y-97862438D02*
X257259047Y-97910057D01*
X257259047Y-97910057D02*
X257306666Y-98005295D01*
X257306666Y-98005295D02*
X257306666Y-98148152D01*
X257306666Y-98148152D02*
X257259047Y-98243390D01*
X257259047Y-98243390D02*
X257211428Y-98291009D01*
X257211428Y-98291009D02*
X257116190Y-98338628D01*
X257116190Y-98338628D02*
X256735238Y-98338628D01*
X257735238Y-98291009D02*
X258068571Y-98291009D01*
X258211428Y-98814819D02*
X257735238Y-98814819D01*
X257735238Y-98814819D02*
X257735238Y-97814819D01*
X257735238Y-97814819D02*
X258211428Y-97814819D01*
X258973333Y-98291009D02*
X258640000Y-98291009D01*
X258640000Y-98814819D02*
X258640000Y-97814819D01*
X258640000Y-97814819D02*
X259116190Y-97814819D01*
X259640000Y-97814819D02*
X259640000Y-98052914D01*
X259401905Y-97957676D02*
X259640000Y-98052914D01*
X259640000Y-98052914D02*
X259878095Y-97957676D01*
X259497143Y-98243390D02*
X259640000Y-98052914D01*
X259640000Y-98052914D02*
X259782857Y-98243390D01*
X260401905Y-97814819D02*
X260401905Y-98052914D01*
X260163810Y-97957676D02*
X260401905Y-98052914D01*
X260401905Y-98052914D02*
X260640000Y-97957676D01*
X260259048Y-98243390D02*
X260401905Y-98052914D01*
X260401905Y-98052914D02*
X260544762Y-98243390D01*
X253806666Y-28704819D02*
X253473333Y-28228628D01*
X253235238Y-28704819D02*
X253235238Y-27704819D01*
X253235238Y-27704819D02*
X253616190Y-27704819D01*
X253616190Y-27704819D02*
X253711428Y-27752438D01*
X253711428Y-27752438D02*
X253759047Y-27800057D01*
X253759047Y-27800057D02*
X253806666Y-27895295D01*
X253806666Y-27895295D02*
X253806666Y-28038152D01*
X253806666Y-28038152D02*
X253759047Y-28133390D01*
X253759047Y-28133390D02*
X253711428Y-28181009D01*
X253711428Y-28181009D02*
X253616190Y-28228628D01*
X253616190Y-28228628D02*
X253235238Y-28228628D01*
X254235238Y-28181009D02*
X254568571Y-28181009D01*
X254711428Y-28704819D02*
X254235238Y-28704819D01*
X254235238Y-28704819D02*
X254235238Y-27704819D01*
X254235238Y-27704819D02*
X254711428Y-27704819D01*
X255473333Y-28181009D02*
X255140000Y-28181009D01*
X255140000Y-28704819D02*
X255140000Y-27704819D01*
X255140000Y-27704819D02*
X255616190Y-27704819D01*
X256140000Y-27704819D02*
X256140000Y-27942914D01*
X255901905Y-27847676D02*
X256140000Y-27942914D01*
X256140000Y-27942914D02*
X256378095Y-27847676D01*
X255997143Y-28133390D02*
X256140000Y-27942914D01*
X256140000Y-27942914D02*
X256282857Y-28133390D01*
X256901905Y-27704819D02*
X256901905Y-27942914D01*
X256663810Y-27847676D02*
X256901905Y-27942914D01*
X256901905Y-27942914D02*
X257140000Y-27847676D01*
X256759048Y-28133390D02*
X256901905Y-27942914D01*
X256901905Y-27942914D02*
X257044762Y-28133390D01*
X211001667Y-84078200D02*
X211144524Y-84125819D01*
X211144524Y-84125819D02*
X211382619Y-84125819D01*
X211382619Y-84125819D02*
X211477857Y-84078200D01*
X211477857Y-84078200D02*
X211525476Y-84030580D01*
X211525476Y-84030580D02*
X211573095Y-83935342D01*
X211573095Y-83935342D02*
X211573095Y-83840104D01*
X211573095Y-83840104D02*
X211525476Y-83744866D01*
X211525476Y-83744866D02*
X211477857Y-83697247D01*
X211477857Y-83697247D02*
X211382619Y-83649628D01*
X211382619Y-83649628D02*
X211192143Y-83602009D01*
X211192143Y-83602009D02*
X211096905Y-83554390D01*
X211096905Y-83554390D02*
X211049286Y-83506771D01*
X211049286Y-83506771D02*
X211001667Y-83411533D01*
X211001667Y-83411533D02*
X211001667Y-83316295D01*
X211001667Y-83316295D02*
X211049286Y-83221057D01*
X211049286Y-83221057D02*
X211096905Y-83173438D01*
X211096905Y-83173438D02*
X211192143Y-83125819D01*
X211192143Y-83125819D02*
X211430238Y-83125819D01*
X211430238Y-83125819D02*
X211573095Y-83173438D01*
X211906429Y-83125819D02*
X212144524Y-84125819D01*
X212144524Y-84125819D02*
X212335000Y-83411533D01*
X212335000Y-83411533D02*
X212525476Y-84125819D01*
X212525476Y-84125819D02*
X212763572Y-83125819D01*
X213573095Y-83125819D02*
X213382619Y-83125819D01*
X213382619Y-83125819D02*
X213287381Y-83173438D01*
X213287381Y-83173438D02*
X213239762Y-83221057D01*
X213239762Y-83221057D02*
X213144524Y-83363914D01*
X213144524Y-83363914D02*
X213096905Y-83554390D01*
X213096905Y-83554390D02*
X213096905Y-83935342D01*
X213096905Y-83935342D02*
X213144524Y-84030580D01*
X213144524Y-84030580D02*
X213192143Y-84078200D01*
X213192143Y-84078200D02*
X213287381Y-84125819D01*
X213287381Y-84125819D02*
X213477857Y-84125819D01*
X213477857Y-84125819D02*
X213573095Y-84078200D01*
X213573095Y-84078200D02*
X213620714Y-84030580D01*
X213620714Y-84030580D02*
X213668333Y-83935342D01*
X213668333Y-83935342D02*
X213668333Y-83697247D01*
X213668333Y-83697247D02*
X213620714Y-83602009D01*
X213620714Y-83602009D02*
X213573095Y-83554390D01*
X213573095Y-83554390D02*
X213477857Y-83506771D01*
X213477857Y-83506771D02*
X213287381Y-83506771D01*
X213287381Y-83506771D02*
X213192143Y-83554390D01*
X213192143Y-83554390D02*
X213144524Y-83602009D01*
X213144524Y-83602009D02*
X213096905Y-83697247D01*
X42286666Y-98944819D02*
X41953333Y-98468628D01*
X41715238Y-98944819D02*
X41715238Y-97944819D01*
X41715238Y-97944819D02*
X42096190Y-97944819D01*
X42096190Y-97944819D02*
X42191428Y-97992438D01*
X42191428Y-97992438D02*
X42239047Y-98040057D01*
X42239047Y-98040057D02*
X42286666Y-98135295D01*
X42286666Y-98135295D02*
X42286666Y-98278152D01*
X42286666Y-98278152D02*
X42239047Y-98373390D01*
X42239047Y-98373390D02*
X42191428Y-98421009D01*
X42191428Y-98421009D02*
X42096190Y-98468628D01*
X42096190Y-98468628D02*
X41715238Y-98468628D01*
X42715238Y-98421009D02*
X43048571Y-98421009D01*
X43191428Y-98944819D02*
X42715238Y-98944819D01*
X42715238Y-98944819D02*
X42715238Y-97944819D01*
X42715238Y-97944819D02*
X43191428Y-97944819D01*
X43953333Y-98421009D02*
X43620000Y-98421009D01*
X43620000Y-98944819D02*
X43620000Y-97944819D01*
X43620000Y-97944819D02*
X44096190Y-97944819D01*
X44620000Y-97944819D02*
X44620000Y-98182914D01*
X44381905Y-98087676D02*
X44620000Y-98182914D01*
X44620000Y-98182914D02*
X44858095Y-98087676D01*
X44477143Y-98373390D02*
X44620000Y-98182914D01*
X44620000Y-98182914D02*
X44762857Y-98373390D01*
X45381905Y-97944819D02*
X45381905Y-98182914D01*
X45143810Y-98087676D02*
X45381905Y-98182914D01*
X45381905Y-98182914D02*
X45620000Y-98087676D01*
X45239048Y-98373390D02*
X45381905Y-98182914D01*
X45381905Y-98182914D02*
X45524762Y-98373390D01*
X172501667Y-84078200D02*
X172644524Y-84125819D01*
X172644524Y-84125819D02*
X172882619Y-84125819D01*
X172882619Y-84125819D02*
X172977857Y-84078200D01*
X172977857Y-84078200D02*
X173025476Y-84030580D01*
X173025476Y-84030580D02*
X173073095Y-83935342D01*
X173073095Y-83935342D02*
X173073095Y-83840104D01*
X173073095Y-83840104D02*
X173025476Y-83744866D01*
X173025476Y-83744866D02*
X172977857Y-83697247D01*
X172977857Y-83697247D02*
X172882619Y-83649628D01*
X172882619Y-83649628D02*
X172692143Y-83602009D01*
X172692143Y-83602009D02*
X172596905Y-83554390D01*
X172596905Y-83554390D02*
X172549286Y-83506771D01*
X172549286Y-83506771D02*
X172501667Y-83411533D01*
X172501667Y-83411533D02*
X172501667Y-83316295D01*
X172501667Y-83316295D02*
X172549286Y-83221057D01*
X172549286Y-83221057D02*
X172596905Y-83173438D01*
X172596905Y-83173438D02*
X172692143Y-83125819D01*
X172692143Y-83125819D02*
X172930238Y-83125819D01*
X172930238Y-83125819D02*
X173073095Y-83173438D01*
X173406429Y-83125819D02*
X173644524Y-84125819D01*
X173644524Y-84125819D02*
X173835000Y-83411533D01*
X173835000Y-83411533D02*
X174025476Y-84125819D01*
X174025476Y-84125819D02*
X174263572Y-83125819D01*
X175073095Y-83459152D02*
X175073095Y-84125819D01*
X174835000Y-83078200D02*
X174596905Y-83792485D01*
X174596905Y-83792485D02*
X175215952Y-83792485D01*
X72223333Y-89692819D02*
X71890000Y-89216628D01*
X71651905Y-89692819D02*
X71651905Y-88692819D01*
X71651905Y-88692819D02*
X72032857Y-88692819D01*
X72032857Y-88692819D02*
X72128095Y-88740438D01*
X72128095Y-88740438D02*
X72175714Y-88788057D01*
X72175714Y-88788057D02*
X72223333Y-88883295D01*
X72223333Y-88883295D02*
X72223333Y-89026152D01*
X72223333Y-89026152D02*
X72175714Y-89121390D01*
X72175714Y-89121390D02*
X72128095Y-89169009D01*
X72128095Y-89169009D02*
X72032857Y-89216628D01*
X72032857Y-89216628D02*
X71651905Y-89216628D01*
X72556667Y-88692819D02*
X73175714Y-88692819D01*
X73175714Y-88692819D02*
X72842381Y-89073771D01*
X72842381Y-89073771D02*
X72985238Y-89073771D01*
X72985238Y-89073771D02*
X73080476Y-89121390D01*
X73080476Y-89121390D02*
X73128095Y-89169009D01*
X73128095Y-89169009D02*
X73175714Y-89264247D01*
X73175714Y-89264247D02*
X73175714Y-89502342D01*
X73175714Y-89502342D02*
X73128095Y-89597580D01*
X73128095Y-89597580D02*
X73080476Y-89645200D01*
X73080476Y-89645200D02*
X72985238Y-89692819D01*
X72985238Y-89692819D02*
X72699524Y-89692819D01*
X72699524Y-89692819D02*
X72604286Y-89645200D01*
X72604286Y-89645200D02*
X72556667Y-89597580D01*
X134001667Y-84078200D02*
X134144524Y-84125819D01*
X134144524Y-84125819D02*
X134382619Y-84125819D01*
X134382619Y-84125819D02*
X134477857Y-84078200D01*
X134477857Y-84078200D02*
X134525476Y-84030580D01*
X134525476Y-84030580D02*
X134573095Y-83935342D01*
X134573095Y-83935342D02*
X134573095Y-83840104D01*
X134573095Y-83840104D02*
X134525476Y-83744866D01*
X134525476Y-83744866D02*
X134477857Y-83697247D01*
X134477857Y-83697247D02*
X134382619Y-83649628D01*
X134382619Y-83649628D02*
X134192143Y-83602009D01*
X134192143Y-83602009D02*
X134096905Y-83554390D01*
X134096905Y-83554390D02*
X134049286Y-83506771D01*
X134049286Y-83506771D02*
X134001667Y-83411533D01*
X134001667Y-83411533D02*
X134001667Y-83316295D01*
X134001667Y-83316295D02*
X134049286Y-83221057D01*
X134049286Y-83221057D02*
X134096905Y-83173438D01*
X134096905Y-83173438D02*
X134192143Y-83125819D01*
X134192143Y-83125819D02*
X134430238Y-83125819D01*
X134430238Y-83125819D02*
X134573095Y-83173438D01*
X134906429Y-83125819D02*
X135144524Y-84125819D01*
X135144524Y-84125819D02*
X135335000Y-83411533D01*
X135335000Y-83411533D02*
X135525476Y-84125819D01*
X135525476Y-84125819D02*
X135763572Y-83125819D01*
X136096905Y-83221057D02*
X136144524Y-83173438D01*
X136144524Y-83173438D02*
X136239762Y-83125819D01*
X136239762Y-83125819D02*
X136477857Y-83125819D01*
X136477857Y-83125819D02*
X136573095Y-83173438D01*
X136573095Y-83173438D02*
X136620714Y-83221057D01*
X136620714Y-83221057D02*
X136668333Y-83316295D01*
X136668333Y-83316295D02*
X136668333Y-83411533D01*
X136668333Y-83411533D02*
X136620714Y-83554390D01*
X136620714Y-83554390D02*
X136049286Y-84125819D01*
X136049286Y-84125819D02*
X136668333Y-84125819D01*
X153251667Y-84078200D02*
X153394524Y-84125819D01*
X153394524Y-84125819D02*
X153632619Y-84125819D01*
X153632619Y-84125819D02*
X153727857Y-84078200D01*
X153727857Y-84078200D02*
X153775476Y-84030580D01*
X153775476Y-84030580D02*
X153823095Y-83935342D01*
X153823095Y-83935342D02*
X153823095Y-83840104D01*
X153823095Y-83840104D02*
X153775476Y-83744866D01*
X153775476Y-83744866D02*
X153727857Y-83697247D01*
X153727857Y-83697247D02*
X153632619Y-83649628D01*
X153632619Y-83649628D02*
X153442143Y-83602009D01*
X153442143Y-83602009D02*
X153346905Y-83554390D01*
X153346905Y-83554390D02*
X153299286Y-83506771D01*
X153299286Y-83506771D02*
X153251667Y-83411533D01*
X153251667Y-83411533D02*
X153251667Y-83316295D01*
X153251667Y-83316295D02*
X153299286Y-83221057D01*
X153299286Y-83221057D02*
X153346905Y-83173438D01*
X153346905Y-83173438D02*
X153442143Y-83125819D01*
X153442143Y-83125819D02*
X153680238Y-83125819D01*
X153680238Y-83125819D02*
X153823095Y-83173438D01*
X154156429Y-83125819D02*
X154394524Y-84125819D01*
X154394524Y-84125819D02*
X154585000Y-83411533D01*
X154585000Y-83411533D02*
X154775476Y-84125819D01*
X154775476Y-84125819D02*
X155013572Y-83125819D01*
X155299286Y-83125819D02*
X155918333Y-83125819D01*
X155918333Y-83125819D02*
X155585000Y-83506771D01*
X155585000Y-83506771D02*
X155727857Y-83506771D01*
X155727857Y-83506771D02*
X155823095Y-83554390D01*
X155823095Y-83554390D02*
X155870714Y-83602009D01*
X155870714Y-83602009D02*
X155918333Y-83697247D01*
X155918333Y-83697247D02*
X155918333Y-83935342D01*
X155918333Y-83935342D02*
X155870714Y-84030580D01*
X155870714Y-84030580D02*
X155823095Y-84078200D01*
X155823095Y-84078200D02*
X155727857Y-84125819D01*
X155727857Y-84125819D02*
X155442143Y-84125819D01*
X155442143Y-84125819D02*
X155346905Y-84078200D01*
X155346905Y-84078200D02*
X155299286Y-84030580D01*
D11*
X148785714Y-49957419D02*
X148785714Y-48957419D01*
X148785714Y-48957419D02*
X149023809Y-48957419D01*
X149023809Y-48957419D02*
X149166666Y-49005038D01*
X149166666Y-49005038D02*
X149261904Y-49100276D01*
X149261904Y-49100276D02*
X149309523Y-49195514D01*
X149309523Y-49195514D02*
X149357142Y-49385990D01*
X149357142Y-49385990D02*
X149357142Y-49528847D01*
X149357142Y-49528847D02*
X149309523Y-49719323D01*
X149309523Y-49719323D02*
X149261904Y-49814561D01*
X149261904Y-49814561D02*
X149166666Y-49909800D01*
X149166666Y-49909800D02*
X149023809Y-49957419D01*
X149023809Y-49957419D02*
X148785714Y-49957419D01*
X149738095Y-49909800D02*
X149880952Y-49957419D01*
X149880952Y-49957419D02*
X150119047Y-49957419D01*
X150119047Y-49957419D02*
X150214285Y-49909800D01*
X150214285Y-49909800D02*
X150261904Y-49862180D01*
X150261904Y-49862180D02*
X150309523Y-49766942D01*
X150309523Y-49766942D02*
X150309523Y-49671704D01*
X150309523Y-49671704D02*
X150261904Y-49576466D01*
X150261904Y-49576466D02*
X150214285Y-49528847D01*
X150214285Y-49528847D02*
X150119047Y-49481228D01*
X150119047Y-49481228D02*
X149928571Y-49433609D01*
X149928571Y-49433609D02*
X149833333Y-49385990D01*
X149833333Y-49385990D02*
X149785714Y-49338371D01*
X149785714Y-49338371D02*
X149738095Y-49243133D01*
X149738095Y-49243133D02*
X149738095Y-49147895D01*
X149738095Y-49147895D02*
X149785714Y-49052657D01*
X149785714Y-49052657D02*
X149833333Y-49005038D01*
X149833333Y-49005038D02*
X149928571Y-48957419D01*
X149928571Y-48957419D02*
X150166666Y-48957419D01*
X150166666Y-48957419D02*
X150309523Y-49005038D01*
X151261904Y-49957419D02*
X150690476Y-49957419D01*
X150976190Y-49957419D02*
X150976190Y-48957419D01*
X150976190Y-48957419D02*
X150880952Y-49100276D01*
X150880952Y-49100276D02*
X150785714Y-49195514D01*
X150785714Y-49195514D02*
X150690476Y-49243133D01*
D10*
X224520588Y-41735438D02*
X224425350Y-41687819D01*
X224425350Y-41687819D02*
X224282493Y-41687819D01*
X224282493Y-41687819D02*
X224139636Y-41735438D01*
X224139636Y-41735438D02*
X224044398Y-41830676D01*
X224044398Y-41830676D02*
X223996779Y-41925914D01*
X223996779Y-41925914D02*
X223949160Y-42116390D01*
X223949160Y-42116390D02*
X223949160Y-42259247D01*
X223949160Y-42259247D02*
X223996779Y-42449723D01*
X223996779Y-42449723D02*
X224044398Y-42544961D01*
X224044398Y-42544961D02*
X224139636Y-42640200D01*
X224139636Y-42640200D02*
X224282493Y-42687819D01*
X224282493Y-42687819D02*
X224377731Y-42687819D01*
X224377731Y-42687819D02*
X224520588Y-42640200D01*
X224520588Y-42640200D02*
X224568207Y-42592580D01*
X224568207Y-42592580D02*
X224568207Y-42259247D01*
X224568207Y-42259247D02*
X224377731Y-42259247D01*
X224996779Y-42687819D02*
X224996779Y-41687819D01*
X224996779Y-41687819D02*
X225568207Y-42687819D01*
X225568207Y-42687819D02*
X225568207Y-41687819D01*
X226044398Y-42687819D02*
X226044398Y-41687819D01*
X226044398Y-41687819D02*
X226282493Y-41687819D01*
X226282493Y-41687819D02*
X226425350Y-41735438D01*
X226425350Y-41735438D02*
X226520588Y-41830676D01*
X226520588Y-41830676D02*
X226568207Y-41925914D01*
X226568207Y-41925914D02*
X226615826Y-42116390D01*
X226615826Y-42116390D02*
X226615826Y-42259247D01*
X226615826Y-42259247D02*
X226568207Y-42449723D01*
X226568207Y-42449723D02*
X226520588Y-42544961D01*
X226520588Y-42544961D02*
X226425350Y-42640200D01*
X226425350Y-42640200D02*
X226282493Y-42687819D01*
X226282493Y-42687819D02*
X226044398Y-42687819D01*
X223853922Y-44227819D02*
X224187255Y-45227819D01*
X224187255Y-45227819D02*
X224520588Y-44227819D01*
X225425350Y-45132580D02*
X225377731Y-45180200D01*
X225377731Y-45180200D02*
X225234874Y-45227819D01*
X225234874Y-45227819D02*
X225139636Y-45227819D01*
X225139636Y-45227819D02*
X224996779Y-45180200D01*
X224996779Y-45180200D02*
X224901541Y-45084961D01*
X224901541Y-45084961D02*
X224853922Y-44989723D01*
X224853922Y-44989723D02*
X224806303Y-44799247D01*
X224806303Y-44799247D02*
X224806303Y-44656390D01*
X224806303Y-44656390D02*
X224853922Y-44465914D01*
X224853922Y-44465914D02*
X224901541Y-44370676D01*
X224901541Y-44370676D02*
X224996779Y-44275438D01*
X224996779Y-44275438D02*
X225139636Y-44227819D01*
X225139636Y-44227819D02*
X225234874Y-44227819D01*
X225234874Y-44227819D02*
X225377731Y-44275438D01*
X225377731Y-44275438D02*
X225425350Y-44323057D01*
X226425350Y-45132580D02*
X226377731Y-45180200D01*
X226377731Y-45180200D02*
X226234874Y-45227819D01*
X226234874Y-45227819D02*
X226139636Y-45227819D01*
X226139636Y-45227819D02*
X225996779Y-45180200D01*
X225996779Y-45180200D02*
X225901541Y-45084961D01*
X225901541Y-45084961D02*
X225853922Y-44989723D01*
X225853922Y-44989723D02*
X225806303Y-44799247D01*
X225806303Y-44799247D02*
X225806303Y-44656390D01*
X225806303Y-44656390D02*
X225853922Y-44465914D01*
X225853922Y-44465914D02*
X225901541Y-44370676D01*
X225901541Y-44370676D02*
X225996779Y-44275438D01*
X225996779Y-44275438D02*
X226139636Y-44227819D01*
X226139636Y-44227819D02*
X226234874Y-44227819D01*
X226234874Y-44227819D02*
X226377731Y-44275438D01*
X226377731Y-44275438D02*
X226425350Y-44323057D01*
X223949160Y-47720200D02*
X224092017Y-47767819D01*
X224092017Y-47767819D02*
X224330112Y-47767819D01*
X224330112Y-47767819D02*
X224425350Y-47720200D01*
X224425350Y-47720200D02*
X224472969Y-47672580D01*
X224472969Y-47672580D02*
X224520588Y-47577342D01*
X224520588Y-47577342D02*
X224520588Y-47482104D01*
X224520588Y-47482104D02*
X224472969Y-47386866D01*
X224472969Y-47386866D02*
X224425350Y-47339247D01*
X224425350Y-47339247D02*
X224330112Y-47291628D01*
X224330112Y-47291628D02*
X224139636Y-47244009D01*
X224139636Y-47244009D02*
X224044398Y-47196390D01*
X224044398Y-47196390D02*
X223996779Y-47148771D01*
X223996779Y-47148771D02*
X223949160Y-47053533D01*
X223949160Y-47053533D02*
X223949160Y-46958295D01*
X223949160Y-46958295D02*
X223996779Y-46863057D01*
X223996779Y-46863057D02*
X224044398Y-46815438D01*
X224044398Y-46815438D02*
X224139636Y-46767819D01*
X224139636Y-46767819D02*
X224377731Y-46767819D01*
X224377731Y-46767819D02*
X224520588Y-46815438D01*
X225520588Y-47672580D02*
X225472969Y-47720200D01*
X225472969Y-47720200D02*
X225330112Y-47767819D01*
X225330112Y-47767819D02*
X225234874Y-47767819D01*
X225234874Y-47767819D02*
X225092017Y-47720200D01*
X225092017Y-47720200D02*
X224996779Y-47624961D01*
X224996779Y-47624961D02*
X224949160Y-47529723D01*
X224949160Y-47529723D02*
X224901541Y-47339247D01*
X224901541Y-47339247D02*
X224901541Y-47196390D01*
X224901541Y-47196390D02*
X224949160Y-47005914D01*
X224949160Y-47005914D02*
X224996779Y-46910676D01*
X224996779Y-46910676D02*
X225092017Y-46815438D01*
X225092017Y-46815438D02*
X225234874Y-46767819D01*
X225234874Y-46767819D02*
X225330112Y-46767819D01*
X225330112Y-46767819D02*
X225472969Y-46815438D01*
X225472969Y-46815438D02*
X225520588Y-46863057D01*
X226425350Y-47767819D02*
X225949160Y-47767819D01*
X225949160Y-47767819D02*
X225949160Y-46767819D01*
X223949160Y-50260200D02*
X224092017Y-50307819D01*
X224092017Y-50307819D02*
X224330112Y-50307819D01*
X224330112Y-50307819D02*
X224425350Y-50260200D01*
X224425350Y-50260200D02*
X224472969Y-50212580D01*
X224472969Y-50212580D02*
X224520588Y-50117342D01*
X224520588Y-50117342D02*
X224520588Y-50022104D01*
X224520588Y-50022104D02*
X224472969Y-49926866D01*
X224472969Y-49926866D02*
X224425350Y-49879247D01*
X224425350Y-49879247D02*
X224330112Y-49831628D01*
X224330112Y-49831628D02*
X224139636Y-49784009D01*
X224139636Y-49784009D02*
X224044398Y-49736390D01*
X224044398Y-49736390D02*
X223996779Y-49688771D01*
X223996779Y-49688771D02*
X223949160Y-49593533D01*
X223949160Y-49593533D02*
X223949160Y-49498295D01*
X223949160Y-49498295D02*
X223996779Y-49403057D01*
X223996779Y-49403057D02*
X224044398Y-49355438D01*
X224044398Y-49355438D02*
X224139636Y-49307819D01*
X224139636Y-49307819D02*
X224377731Y-49307819D01*
X224377731Y-49307819D02*
X224520588Y-49355438D01*
X224949160Y-50307819D02*
X224949160Y-49307819D01*
X224949160Y-49307819D02*
X225187255Y-49307819D01*
X225187255Y-49307819D02*
X225330112Y-49355438D01*
X225330112Y-49355438D02*
X225425350Y-49450676D01*
X225425350Y-49450676D02*
X225472969Y-49545914D01*
X225472969Y-49545914D02*
X225520588Y-49736390D01*
X225520588Y-49736390D02*
X225520588Y-49879247D01*
X225520588Y-49879247D02*
X225472969Y-50069723D01*
X225472969Y-50069723D02*
X225425350Y-50164961D01*
X225425350Y-50164961D02*
X225330112Y-50260200D01*
X225330112Y-50260200D02*
X225187255Y-50307819D01*
X225187255Y-50307819D02*
X224949160Y-50307819D01*
X225901541Y-50022104D02*
X226377731Y-50022104D01*
X225806303Y-50307819D02*
X226139636Y-49307819D01*
X226139636Y-49307819D02*
X226472969Y-50307819D01*
X224568207Y-52847819D02*
X224234874Y-52371628D01*
X223996779Y-52847819D02*
X223996779Y-51847819D01*
X223996779Y-51847819D02*
X224377731Y-51847819D01*
X224377731Y-51847819D02*
X224472969Y-51895438D01*
X224472969Y-51895438D02*
X224520588Y-51943057D01*
X224520588Y-51943057D02*
X224568207Y-52038295D01*
X224568207Y-52038295D02*
X224568207Y-52181152D01*
X224568207Y-52181152D02*
X224520588Y-52276390D01*
X224520588Y-52276390D02*
X224472969Y-52324009D01*
X224472969Y-52324009D02*
X224377731Y-52371628D01*
X224377731Y-52371628D02*
X223996779Y-52371628D01*
X224949160Y-52800200D02*
X225092017Y-52847819D01*
X225092017Y-52847819D02*
X225330112Y-52847819D01*
X225330112Y-52847819D02*
X225425350Y-52800200D01*
X225425350Y-52800200D02*
X225472969Y-52752580D01*
X225472969Y-52752580D02*
X225520588Y-52657342D01*
X225520588Y-52657342D02*
X225520588Y-52562104D01*
X225520588Y-52562104D02*
X225472969Y-52466866D01*
X225472969Y-52466866D02*
X225425350Y-52419247D01*
X225425350Y-52419247D02*
X225330112Y-52371628D01*
X225330112Y-52371628D02*
X225139636Y-52324009D01*
X225139636Y-52324009D02*
X225044398Y-52276390D01*
X225044398Y-52276390D02*
X224996779Y-52228771D01*
X224996779Y-52228771D02*
X224949160Y-52133533D01*
X224949160Y-52133533D02*
X224949160Y-52038295D01*
X224949160Y-52038295D02*
X224996779Y-51943057D01*
X224996779Y-51943057D02*
X225044398Y-51895438D01*
X225044398Y-51895438D02*
X225139636Y-51847819D01*
X225139636Y-51847819D02*
X225377731Y-51847819D01*
X225377731Y-51847819D02*
X225520588Y-51895438D01*
X225806303Y-51847819D02*
X226377731Y-51847819D01*
X226092017Y-52847819D02*
X226092017Y-51847819D01*
X223996779Y-55387819D02*
X223996779Y-54387819D01*
X223996779Y-54387819D02*
X224234874Y-54387819D01*
X224234874Y-54387819D02*
X224377731Y-54435438D01*
X224377731Y-54435438D02*
X224472969Y-54530676D01*
X224472969Y-54530676D02*
X224520588Y-54625914D01*
X224520588Y-54625914D02*
X224568207Y-54816390D01*
X224568207Y-54816390D02*
X224568207Y-54959247D01*
X224568207Y-54959247D02*
X224520588Y-55149723D01*
X224520588Y-55149723D02*
X224472969Y-55244961D01*
X224472969Y-55244961D02*
X224377731Y-55340200D01*
X224377731Y-55340200D02*
X224234874Y-55387819D01*
X224234874Y-55387819D02*
X223996779Y-55387819D01*
X225568207Y-55292580D02*
X225520588Y-55340200D01*
X225520588Y-55340200D02*
X225377731Y-55387819D01*
X225377731Y-55387819D02*
X225282493Y-55387819D01*
X225282493Y-55387819D02*
X225139636Y-55340200D01*
X225139636Y-55340200D02*
X225044398Y-55244961D01*
X225044398Y-55244961D02*
X224996779Y-55149723D01*
X224996779Y-55149723D02*
X224949160Y-54959247D01*
X224949160Y-54959247D02*
X224949160Y-54816390D01*
X224949160Y-54816390D02*
X224996779Y-54625914D01*
X224996779Y-54625914D02*
X225044398Y-54530676D01*
X225044398Y-54530676D02*
X225139636Y-54435438D01*
X225139636Y-54435438D02*
X225282493Y-54387819D01*
X225282493Y-54387819D02*
X225377731Y-54387819D01*
X225377731Y-54387819D02*
X225520588Y-54435438D01*
X225520588Y-54435438D02*
X225568207Y-54483057D01*
X224568207Y-57832580D02*
X224520588Y-57880200D01*
X224520588Y-57880200D02*
X224377731Y-57927819D01*
X224377731Y-57927819D02*
X224282493Y-57927819D01*
X224282493Y-57927819D02*
X224139636Y-57880200D01*
X224139636Y-57880200D02*
X224044398Y-57784961D01*
X224044398Y-57784961D02*
X223996779Y-57689723D01*
X223996779Y-57689723D02*
X223949160Y-57499247D01*
X223949160Y-57499247D02*
X223949160Y-57356390D01*
X223949160Y-57356390D02*
X223996779Y-57165914D01*
X223996779Y-57165914D02*
X224044398Y-57070676D01*
X224044398Y-57070676D02*
X224139636Y-56975438D01*
X224139636Y-56975438D02*
X224282493Y-56927819D01*
X224282493Y-56927819D02*
X224377731Y-56927819D01*
X224377731Y-56927819D02*
X224520588Y-56975438D01*
X224520588Y-56975438D02*
X224568207Y-57023057D01*
X224949160Y-57880200D02*
X225092017Y-57927819D01*
X225092017Y-57927819D02*
X225330112Y-57927819D01*
X225330112Y-57927819D02*
X225425350Y-57880200D01*
X225425350Y-57880200D02*
X225472969Y-57832580D01*
X225472969Y-57832580D02*
X225520588Y-57737342D01*
X225520588Y-57737342D02*
X225520588Y-57642104D01*
X225520588Y-57642104D02*
X225472969Y-57546866D01*
X225472969Y-57546866D02*
X225425350Y-57499247D01*
X225425350Y-57499247D02*
X225330112Y-57451628D01*
X225330112Y-57451628D02*
X225139636Y-57404009D01*
X225139636Y-57404009D02*
X225044398Y-57356390D01*
X225044398Y-57356390D02*
X224996779Y-57308771D01*
X224996779Y-57308771D02*
X224949160Y-57213533D01*
X224949160Y-57213533D02*
X224949160Y-57118295D01*
X224949160Y-57118295D02*
X224996779Y-57023057D01*
X224996779Y-57023057D02*
X225044398Y-56975438D01*
X225044398Y-56975438D02*
X225139636Y-56927819D01*
X225139636Y-56927819D02*
X225377731Y-56927819D01*
X225377731Y-56927819D02*
X225520588Y-56975438D01*
X85406667Y-84577200D02*
X85549524Y-84624819D01*
X85549524Y-84624819D02*
X85787619Y-84624819D01*
X85787619Y-84624819D02*
X85882857Y-84577200D01*
X85882857Y-84577200D02*
X85930476Y-84529580D01*
X85930476Y-84529580D02*
X85978095Y-84434342D01*
X85978095Y-84434342D02*
X85978095Y-84339104D01*
X85978095Y-84339104D02*
X85930476Y-84243866D01*
X85930476Y-84243866D02*
X85882857Y-84196247D01*
X85882857Y-84196247D02*
X85787619Y-84148628D01*
X85787619Y-84148628D02*
X85597143Y-84101009D01*
X85597143Y-84101009D02*
X85501905Y-84053390D01*
X85501905Y-84053390D02*
X85454286Y-84005771D01*
X85454286Y-84005771D02*
X85406667Y-83910533D01*
X85406667Y-83910533D02*
X85406667Y-83815295D01*
X85406667Y-83815295D02*
X85454286Y-83720057D01*
X85454286Y-83720057D02*
X85501905Y-83672438D01*
X85501905Y-83672438D02*
X85597143Y-83624819D01*
X85597143Y-83624819D02*
X85835238Y-83624819D01*
X85835238Y-83624819D02*
X85978095Y-83672438D01*
X86311429Y-83624819D02*
X86549524Y-84624819D01*
X86549524Y-84624819D02*
X86740000Y-83910533D01*
X86740000Y-83910533D02*
X86930476Y-84624819D01*
X86930476Y-84624819D02*
X87168572Y-83624819D01*
X87692381Y-84053390D02*
X87597143Y-84005771D01*
X87597143Y-84005771D02*
X87549524Y-83958152D01*
X87549524Y-83958152D02*
X87501905Y-83862914D01*
X87501905Y-83862914D02*
X87501905Y-83815295D01*
X87501905Y-83815295D02*
X87549524Y-83720057D01*
X87549524Y-83720057D02*
X87597143Y-83672438D01*
X87597143Y-83672438D02*
X87692381Y-83624819D01*
X87692381Y-83624819D02*
X87882857Y-83624819D01*
X87882857Y-83624819D02*
X87978095Y-83672438D01*
X87978095Y-83672438D02*
X88025714Y-83720057D01*
X88025714Y-83720057D02*
X88073333Y-83815295D01*
X88073333Y-83815295D02*
X88073333Y-83862914D01*
X88073333Y-83862914D02*
X88025714Y-83958152D01*
X88025714Y-83958152D02*
X87978095Y-84005771D01*
X87978095Y-84005771D02*
X87882857Y-84053390D01*
X87882857Y-84053390D02*
X87692381Y-84053390D01*
X87692381Y-84053390D02*
X87597143Y-84101009D01*
X87597143Y-84101009D02*
X87549524Y-84148628D01*
X87549524Y-84148628D02*
X87501905Y-84243866D01*
X87501905Y-84243866D02*
X87501905Y-84434342D01*
X87501905Y-84434342D02*
X87549524Y-84529580D01*
X87549524Y-84529580D02*
X87597143Y-84577200D01*
X87597143Y-84577200D02*
X87692381Y-84624819D01*
X87692381Y-84624819D02*
X87882857Y-84624819D01*
X87882857Y-84624819D02*
X87978095Y-84577200D01*
X87978095Y-84577200D02*
X88025714Y-84529580D01*
X88025714Y-84529580D02*
X88073333Y-84434342D01*
X88073333Y-84434342D02*
X88073333Y-84243866D01*
X88073333Y-84243866D02*
X88025714Y-84148628D01*
X88025714Y-84148628D02*
X87978095Y-84101009D01*
X87978095Y-84101009D02*
X87882857Y-84053390D01*
X74509333Y-107472819D02*
X74176000Y-106996628D01*
X73937905Y-107472819D02*
X73937905Y-106472819D01*
X73937905Y-106472819D02*
X74318857Y-106472819D01*
X74318857Y-106472819D02*
X74414095Y-106520438D01*
X74414095Y-106520438D02*
X74461714Y-106568057D01*
X74461714Y-106568057D02*
X74509333Y-106663295D01*
X74509333Y-106663295D02*
X74509333Y-106806152D01*
X74509333Y-106806152D02*
X74461714Y-106901390D01*
X74461714Y-106901390D02*
X74414095Y-106949009D01*
X74414095Y-106949009D02*
X74318857Y-106996628D01*
X74318857Y-106996628D02*
X73937905Y-106996628D01*
X75366476Y-106806152D02*
X75366476Y-107472819D01*
X75128381Y-106425200D02*
X74890286Y-107139485D01*
X74890286Y-107139485D02*
X75509333Y-107139485D01*
X43356666Y-28314819D02*
X43023333Y-27838628D01*
X42785238Y-28314819D02*
X42785238Y-27314819D01*
X42785238Y-27314819D02*
X43166190Y-27314819D01*
X43166190Y-27314819D02*
X43261428Y-27362438D01*
X43261428Y-27362438D02*
X43309047Y-27410057D01*
X43309047Y-27410057D02*
X43356666Y-27505295D01*
X43356666Y-27505295D02*
X43356666Y-27648152D01*
X43356666Y-27648152D02*
X43309047Y-27743390D01*
X43309047Y-27743390D02*
X43261428Y-27791009D01*
X43261428Y-27791009D02*
X43166190Y-27838628D01*
X43166190Y-27838628D02*
X42785238Y-27838628D01*
X43785238Y-27791009D02*
X44118571Y-27791009D01*
X44261428Y-28314819D02*
X43785238Y-28314819D01*
X43785238Y-28314819D02*
X43785238Y-27314819D01*
X43785238Y-27314819D02*
X44261428Y-27314819D01*
X45023333Y-27791009D02*
X44690000Y-27791009D01*
X44690000Y-28314819D02*
X44690000Y-27314819D01*
X44690000Y-27314819D02*
X45166190Y-27314819D01*
X45690000Y-27314819D02*
X45690000Y-27552914D01*
X45451905Y-27457676D02*
X45690000Y-27552914D01*
X45690000Y-27552914D02*
X45928095Y-27457676D01*
X45547143Y-27743390D02*
X45690000Y-27552914D01*
X45690000Y-27552914D02*
X45832857Y-27743390D01*
X46451905Y-27314819D02*
X46451905Y-27552914D01*
X46213810Y-27457676D02*
X46451905Y-27552914D01*
X46451905Y-27552914D02*
X46690000Y-27457676D01*
X46309048Y-27743390D02*
X46451905Y-27552914D01*
X46451905Y-27552914D02*
X46594762Y-27743390D01*
%TO.C,R2*%
D12*
X69374000Y-98198000D02*
X75914000Y-98198000D01*
X69374000Y-98528000D02*
X69374000Y-98198000D01*
X69374000Y-100608000D02*
X69374000Y-100938000D01*
X69374000Y-100938000D02*
X75914000Y-100938000D01*
X75914000Y-98198000D02*
X75914000Y-98528000D01*
X75914000Y-100938000D02*
X75914000Y-100608000D01*
%TO.C,C1*%
X69282000Y-79402000D02*
X74522000Y-79402000D01*
X69282000Y-82142000D02*
X69282000Y-79402000D01*
X74522000Y-79402000D02*
X74522000Y-82142000D01*
X74522000Y-82142000D02*
X69282000Y-82142000D01*
%TO.C,SW1*%
X109100000Y-84560000D02*
X123070000Y-84560000D01*
X109100000Y-98530000D02*
X109100000Y-84560000D01*
X123070000Y-84560000D02*
X123070000Y-98530000D01*
X123070000Y-98530000D02*
X109100000Y-98530000D01*
%TO.C,R1*%
X69374000Y-91030000D02*
X69374000Y-91360000D01*
X69374000Y-93770000D02*
X69374000Y-93440000D01*
X75914000Y-91030000D02*
X69374000Y-91030000D01*
X75914000Y-91360000D02*
X75914000Y-91030000D01*
X75914000Y-93440000D02*
X75914000Y-93770000D01*
X75914000Y-93770000D02*
X69374000Y-93770000D01*
%TO.C,C2*%
X67992000Y-108358000D02*
X73232000Y-108358000D01*
X67992000Y-111098000D02*
X67992000Y-108358000D01*
X73232000Y-108358000D02*
X73232000Y-111098000D01*
X73232000Y-111098000D02*
X67992000Y-111098000D01*
%TO.C,SW5*%
X186100000Y-84560000D02*
X200070000Y-84560000D01*
X186100000Y-98530000D02*
X186100000Y-84560000D01*
X200070000Y-84560000D02*
X200070000Y-98530000D01*
X200070000Y-98530000D02*
X186100000Y-98530000D01*
%TO.C,SW6*%
X205350000Y-84560000D02*
X219320000Y-84560000D01*
X205350000Y-98530000D02*
X205350000Y-84560000D01*
X219320000Y-84560000D02*
X219320000Y-98530000D01*
X219320000Y-98530000D02*
X205350000Y-98530000D01*
%TO.C,SW4*%
X166850000Y-84560000D02*
X180820000Y-84560000D01*
X166850000Y-98530000D02*
X166850000Y-84560000D01*
X180820000Y-84560000D02*
X180820000Y-98530000D01*
X180820000Y-98530000D02*
X166850000Y-98530000D01*
%TO.C,R3*%
X69120000Y-85498000D02*
X69120000Y-85828000D01*
X69120000Y-88238000D02*
X69120000Y-87908000D01*
X75660000Y-85498000D02*
X69120000Y-85498000D01*
X75660000Y-85828000D02*
X75660000Y-85498000D01*
X75660000Y-87908000D02*
X75660000Y-88238000D01*
X75660000Y-88238000D02*
X69120000Y-88238000D01*
%TO.C,SW2*%
X128350000Y-84560000D02*
X142320000Y-84560000D01*
X128350000Y-98530000D02*
X128350000Y-84560000D01*
X142320000Y-84560000D02*
X142320000Y-98530000D01*
X142320000Y-98530000D02*
X128350000Y-98530000D01*
%TO.C,SW3*%
X147600000Y-84560000D02*
X161570000Y-84560000D01*
X147600000Y-98530000D02*
X147600000Y-84560000D01*
X161570000Y-84560000D02*
X161570000Y-98530000D01*
X161570000Y-98530000D02*
X147600000Y-98530000D01*
%TO.C,DS1*%
D11*
X70500000Y-25000000D02*
X229500000Y-25000000D01*
X229500000Y-75000000D01*
X70500000Y-75000000D01*
X70500000Y-25000000D01*
%TO.C,SW8*%
D12*
X83640000Y-87270000D02*
X84240000Y-87270000D01*
X83940000Y-87570000D02*
X83640000Y-87270000D01*
X84240000Y-87270000D02*
X83940000Y-87570000D01*
X85340000Y-85470000D02*
X85340000Y-97270000D01*
X89440000Y-85470000D02*
X85340000Y-85470000D01*
X89440000Y-97270000D02*
X85340000Y-97270000D01*
X90940000Y-91370000D02*
X91940000Y-91370000D01*
X91440000Y-90870000D02*
X91440000Y-91870000D01*
X93440000Y-85470000D02*
X97540000Y-85470000D01*
X97540000Y-85470000D02*
X97540000Y-87870000D01*
X97540000Y-90070000D02*
X97540000Y-92670000D01*
X97540000Y-94870000D02*
X97540000Y-97270000D01*
X97540000Y-97270000D02*
X93440000Y-97270000D01*
X94440000Y-91370000D02*
G75*
G02*
X88440000Y-91370000I-3000000J0D01*
G01*
X88440000Y-91370000D02*
G75*
G02*
X94440000Y-91370000I3000000J0D01*
G01*
%TO.C,R4*%
X69374000Y-103278000D02*
X69374000Y-103608000D01*
X69374000Y-106018000D02*
X69374000Y-105688000D01*
X75914000Y-103278000D02*
X69374000Y-103278000D01*
X75914000Y-103608000D02*
X75914000Y-103278000D01*
X75914000Y-105688000D02*
X75914000Y-106018000D01*
X75914000Y-106018000D02*
X69374000Y-106018000D01*
%TD*%
M02*
