%TF.GenerationSoftware,KiCad,Pcbnew,10.0.0*%
%TF.CreationDate,2026-04-22T18:57:48-04:00*%
%TF.ProjectId,morph00,6d6f7270-6830-4302-9e6b-696361645f70,rev?*%
%TF.SameCoordinates,Original*%
%TF.FileFunction,Soldermask,Top*%
%TF.FilePolarity,Negative*%
%FSLAX46Y46*%
G04 Gerber Fmt 4.6, Leading zero omitted, Abs format (unit mm)*
G04 Created by KiCad (PCBNEW 10.0.0) date 2026-04-22 18:57:48*
%MOMM*%
%LPD*%
G01*
G04 APERTURE LIST*
G04 Aperture macros list*
%AMRoundRect*
0 Rectangle with rounded corners*
0 $1 Rounding radius*
0 $2 $3 $4 $5 $6 $7 $8 $9 X,Y pos of 4 corners*
0 Add a 4 corners polygon primitive as box body*
4,1,4,$2,$3,$4,$5,$6,$7,$8,$9,$2,$3,0*
0 Add four circle primitives for the rounded corners*
1,1,$1+$1,$2,$3*
1,1,$1+$1,$4,$5*
1,1,$1+$1,$6,$7*
1,1,$1+$1,$8,$9*
0 Add four rect primitives between the rounded corners*
20,1,$1+$1,$2,$3,$4,$5,0*
20,1,$1+$1,$4,$5,$6,$7,0*
20,1,$1+$1,$6,$7,$8,$9,0*
20,1,$1+$1,$8,$9,$2,$3,0*%
G04 Aperture macros list end*
%ADD10C,1.879600*%
%ADD11C,1.600000*%
%ADD12C,1.700000*%
%ADD13C,4.000000*%
%ADD14C,2.200000*%
%ADD15C,3.200000*%
%ADD16C,3.250000*%
%ADD17RoundRect,0.250000X-0.650000X-0.650000X0.650000X-0.650000X0.650000X0.650000X-0.650000X0.650000X0*%
%ADD18R,2.000000X2.000000*%
%ADD19C,2.000000*%
%ADD20R,3.200000X2.000000*%
G04 APERTURE END LIST*
D10*
%TO.C,U1*%
X249438000Y-108214000D03*
X249438000Y-105674000D03*
X249438000Y-103134000D03*
X249438000Y-100594000D03*
X249438000Y-98054000D03*
X249438000Y-95514000D03*
X249438000Y-92974000D03*
X249438000Y-90434000D03*
X249438000Y-87894000D03*
X249438000Y-85354000D03*
X249438000Y-82814000D03*
X249438000Y-80274000D03*
X249438000Y-77734000D03*
X234198000Y-108214000D03*
X234198000Y-105674000D03*
X234198000Y-103134000D03*
X234198000Y-100594000D03*
X234198000Y-98054000D03*
X234198000Y-95514000D03*
X234198000Y-92974000D03*
X234198000Y-90434000D03*
X234198000Y-87894000D03*
X234198000Y-85354000D03*
X234198000Y-82814000D03*
X234198000Y-80274000D03*
X234198000Y-77734000D03*
%TD*%
D11*
%TO.C,R2*%
X68834000Y-99568000D03*
X76454000Y-99568000D03*
%TD*%
%TO.C,C1*%
X70652000Y-80772000D03*
X73152000Y-80772000D03*
%TD*%
D12*
%TO.C,SW1*%
X111005000Y-91545000D03*
D13*
X116085000Y-91545000D03*
D12*
X121165000Y-91545000D03*
D14*
X118625000Y-86465000D03*
X112275000Y-89005000D03*
%TD*%
D11*
%TO.C,R1*%
X76454000Y-92400000D03*
X68834000Y-92400000D03*
%TD*%
%TO.C,C2*%
X69362000Y-109728000D03*
X71862000Y-109728000D03*
%TD*%
D12*
%TO.C,SW5*%
X188005000Y-91545000D03*
D13*
X193085000Y-91545000D03*
D12*
X198165000Y-91545000D03*
D14*
X195625000Y-86465000D03*
X189275000Y-89005000D03*
%TD*%
D15*
%TO.C,REF\u002A\u002A*%
X256380000Y-102640000D03*
%TD*%
%TO.C,REF\u002A\u002A*%
X256370000Y-32420000D03*
%TD*%
D12*
%TO.C,SW6*%
X207255000Y-91545000D03*
D13*
X212335000Y-91545000D03*
D12*
X217415000Y-91545000D03*
D14*
X214875000Y-86465000D03*
X208525000Y-89005000D03*
%TD*%
D15*
%TO.C,REF\u002A\u002A*%
X43620000Y-102640000D03*
%TD*%
D12*
%TO.C,SW4*%
X168755000Y-91545000D03*
D13*
X173835000Y-91545000D03*
D12*
X178915000Y-91545000D03*
D14*
X176375000Y-86465000D03*
X170025000Y-89005000D03*
%TD*%
D11*
%TO.C,R3*%
X76200000Y-86868000D03*
X68580000Y-86868000D03*
%TD*%
D12*
%TO.C,SW2*%
X130255000Y-91545000D03*
D13*
X135335000Y-91545000D03*
D12*
X140415000Y-91545000D03*
D14*
X137875000Y-86465000D03*
X131525000Y-89005000D03*
%TD*%
D12*
%TO.C,SW3*%
X149505000Y-91545000D03*
D13*
X154585000Y-91545000D03*
D12*
X159665000Y-91545000D03*
D14*
X157125000Y-86465000D03*
X150775000Y-89005000D03*
%TD*%
D16*
%TO.C,DS1*%
X72310000Y-72300000D03*
X72390000Y-27780000D03*
X227290000Y-72290000D03*
X227504600Y-27830000D03*
D17*
X227910000Y-42160000D03*
X227910000Y-44700000D03*
X227910000Y-47240000D03*
X227910000Y-49780000D03*
X227910000Y-52320000D03*
X227910000Y-54860000D03*
X227910000Y-57400000D03*
%TD*%
D18*
%TO.C,SW8*%
X83940000Y-88870000D03*
D19*
X83940000Y-93870000D03*
X83940000Y-91370000D03*
D20*
X91440000Y-85770000D03*
X91440000Y-96970000D03*
D19*
X98440000Y-93870000D03*
X98440000Y-88870000D03*
%TD*%
D11*
%TO.C,R4*%
X76454000Y-104648000D03*
X68834000Y-104648000D03*
%TD*%
D15*
%TO.C,REF\u002A\u002A*%
X43620000Y-32420000D03*
%TD*%
M02*
